<svg xmlns:svg="http://www.w3.org/2000/svg" xmlns="http://www.w3.org/2000/svg" version="1.0" width="800" height="144.748" viewBox="0 0 800 144.748" id="Layer_1"><defs id="defs20"/><path d="M435.229 135.009H538.465V122.399H452.927V82.049H517.176V69.29H452.927V32.115H538.465V19.551H435.229V135.009" id="polyline3"/><path d="M488.878.887 474.901 16.589 518.778.887H488.878" id="polyline5"/><path d="M711.773 122.399V19.551H695.637V135.009H8e2V122.399H711.773" id="polyline7"/><path d="M605.359 19.551 546.652 135.009H566.496L581.515 105.125H651.925L667.072 135.009H686.711L627.957 19.551H605.359M588.946 90.653 616.61 35.505 644.598 90.653H588.946z" id="path9"/><path d="M379.21 86.73C405.661 79.672 408.231 59.991 408.097 52.955 406.518 32.329 392.621 19.551 367.65 19.551H294.88V135.009h16.589V86.576h47.375L393.697 135.009H414.606C414.605 135.009 389.524 102.413 379.21 86.73M365.385 72.934H311.469V33.217H367.264C380.11 33.217 387.336 39.214 389.939 46.832 391.661 52.054 390.557 58.909 387.708 63.576 383.045 71.292 374.187 72.934 365.385 72.934z" id="path11"/><path d="M195.188.0C148.36.0 116.443 33.017 116.443 72.979 116.443 115.049 151.7 144.748 195.188 144.748 238.647 144.748 273.89 115.473 273.89 72.979 273.89 33.017 241.578.0 195.188.0M194.626 130.416C162.228 130.416 135.534 104.381 135.534 73.018 135.534 41.698 160.968 14.416 195.882 14.416 229.931 14.416 254.96 41.698 254.96 73.018 254.96 104.38 227.01 130.416 194.626 130.416z" id="path13"/><path d="M74.663 60.396H86.633L108.36 19.551H90.876L74.663 60.396" id="polyline15"/><path d="M16.145 122.399V19.551H0V135.009H104.359V122.399H16.145" id="polyline17"/></svg>