<svg height="40" viewBox="0 0 64 64" width="40" fill="#f36b24" xmlns="http://www.w3.org/2000/svg"><path d="m19 2c-2.757812 0-5 2.242188-5 5v50c0 2.757813 2.242188 5 5 5h26c2.757813 0 5-2.242187 5-5v-50c0-2.757812-2.242187-5-5-5zm0 2h26c1.652344 0 3 1.347656 3 3v1h-11c-.554687 0-1 .449219-1 1s.445313 1 1 1h11v40h-32v-40h11c.554688 0 1-.449219 1-1s-.445312-1-1-1h-11v-1c0-1.652344 1.347656-3 3-3zm12 4c-.554687 0-1 .449219-1 1s.445313 1 1 1h2c.554688 0 1-.449219 1-1s-.445312-1-1-1zm-12 34c-.554687 0-1 .449219-1 1v2c0 .550781.445313 1 1 1 .554688 0 1-.449219 1-1v-2c0-.550781-.445312-1-1-1zm5 0c-.554687 0-1 .449219-1 1v2c0 .550781.445313 1 1 1 .554688 0 1-.449219 1-1v-2c0-.550781-.445312-1-1-1zm5 0c-.554687 0-1 .449219-1 1v2c0 .550781.445313 1 1 1 .554688 0 1-.449219 1-1v-2c0-.550781-.445312-1-1-1zm6 0c-.554687 0-1 .449219-1 1v2c0 .550781.445313 1 1 1 .554688 0 1-.449219 1-1v-2c0-.550781-.445312-1-1-1zm5 0c-.554687 0-1 .449219-1 1v2c0 .550781.445313 1 1 1 .554688 0 1-.449219 1-1v-2c0-.550781-.445312-1-1-1zm5 0c-.554687 0-1 .449219-1 1v2c0 .550781.445313 1 1 1 .554688 0 1-.449219 1-1v-2c0-.550781-.445312-1-1-1zm-29 10h32v5c0 1.652344-1.347656 3-3 3h-26c-1.652344 0-3-1.347656-3-3zm13 2c-.554687 0-1 .449219-1 1s.445313 1 1 1h6c.554688 0 1-.449219 1-1s-.445312-1-1-1z"/></svg>