<svg height="45" viewBox="0 0 64 64" width="45" fill= '#2b4058' xmlns="http://www.w3.org/2000/svg"><path d="m23.5 6c-3.577665 0-6.5 2.9223349-6.5 6.5 0 3.577665 2.922335 6.5 6.5 6.5 3.431011 0 6.189908-2.710103 6.416016-6.085938a1.0001 1.0001 0 0 0 .083984-.414062 1.0001 1.0001 0 0 0 -.083984-.410156c-.224179-3.3776753-2.983676-6.089844-6.416016-6.089844zm17 0c-3.577665 0-6.5 2.9223349-6.5 6.5 0 3.577665 2.922335 6.5 6.5 6.5 3.431011 0 6.189908-2.710103 6.416016-6.085938a1.0001 1.0001 0 0 0 .083984-.414062 1.0001 1.0001 0 0 0 -.083984-.410156c-.224179-3.3776753-2.983676-6.089844-6.416016-6.089844zm-17 2c2.496335 0 4.5 2.003665 4.5 4.5s-2.003665 4.5-4.5 4.5-4.5-2.003665-4.5-4.5 2.003665-4.5 4.5-4.5zm17 0c2.496335 0 4.5 2.003665 4.5 4.5s-2.003665 4.5-4.5 4.5-4.5-2.003665-4.5-4.5 2.003665-4.5 4.5-4.5zm-28.5 11c-3.8536983 0-7 3.146302-7 7s3.1463017 7 7 7c3.706983 0 6.68897-2.934166 6.916016-6.585938a1.0001 1.0001 0 0 0 .083984-.414062 1.0001 1.0001 0 0 0 -.083984-.412109c-.226074-3.652691-3.208368-6.587891-6.916016-6.587891zm40 0c-3.853698 0-7 3.146302-7 7s3.146302 7 7 7c3.706983 0 6.68897-2.934166 6.916016-6.585938a1.0001 1.0001 0 0 0 .083984-.414062 1.0001 1.0001 0 0 0 -.083984-.412109c-.226074-3.652691-3.208368-6.587891-6.916016-6.587891zm-40 2c2.772302 0 5 2.227698 5 5s-2.227698 5-5 5c-2.7723017 0-5-2.227698-5-5s2.2276983-5 5-5zm40 0c2.772302 0 5 2.227698 5 5s-2.227698 5-5 5-5-2.227698-5-5 2.227698-5 5-5zm-20 5c-4.40575 0-8 3.59425-8 8s3.59425 8 8 8c4.259078 0 7.687651-3.382072 7.916016-7.585938a1.0001 1.0001 0 0 0 .083984-.414062 1.0001 1.0001 0 0 0 -.083984-.410156c-.226393-4.205703-3.655609-7.589844-7.916016-7.589844zm0 2c3.32425 0 6 2.67575 6 6s-2.67575 6-6 6-6-2.67575-6-6 2.67575-6 6-6zm-20 6c-8.0714667 0-10.9316406 7.066406-10.9316406 7.066406a1.0001 1.0001 0 0 0 -.0683594.363282v2.570312a1.0001 1.0001 0 0 0 1 1h20a1.0001 1.0001 0 0 0 1-1v-2.570312a1.0001 1.0001 0 0 0 -.068359-.363282c.000001 0-2.860174-7.066406-10.931641-7.066406zm40 0c-8.071467 0-10.931641 7.066406-10.931641 7.066406a1.0001 1.0001 0 0 0 -.068359.363282v2.570312a1.0001 1.0001 0 0 0 1 1h20a1.0001 1.0001 0 0 0 1-1v-2.570312a1.0001 1.0001 0 0 0 -.068359-.363282c.000001 0-2.860174-7.066406-10.931641-7.066406zm-40 2c6.662634 0 8.838336 5.241287 9 5.652344v1.347656h-18v-1.347656c.1616643-.411057 2.3373664-5.652344 9-5.652344zm40 0c6.662634 0 8.838336 5.241287 9 5.652344v1.347656h-18v-1.347656c.161664-.411057 2.337366-5.652344 9-5.652344zm-20 8c-10.747701 0-14.921875 9.710937-14.921875 9.710938a1.0001 1.0001 0 0 0 -.078125.388671v3.900391a1.0001 1.0001 0 0 0 1 1h28a1.0001 1.0001 0 0 0 1-1v-3.900391a1.0001 1.0001 0 0 0 -.078125-.388671c.000005 0-4.174174-9.710938-14.921875-9.710938zm0 2c9.285106 0 12.806322 7.893057 13 8.341797v2.658203h-26v-2.658203c.193678-.44874 3.714894-8.341797 13-8.341797zm-8 5c-.552 0-1 .448-1 1v2c0 .552.448 1 1 1s1-.448 1-1v-2c0-.552-.448-1-1-1zm5 0c-.552 0-1 .448-1 1v2c0 .552.448 1 1 1s1-.448 1-1v-2c0-.552-.448-1-1-1zm6 0c-.552 0-1 .448-1 1v2c0 .552.448 1 1 1s1-.448 1-1v-2c0-.552-.448-1-1-1zm5 0c-.552 0-1 .448-1 1v2c0 .552.448 1 1 1s1-.448 1-1v-2c0-.552-.448-1-1-1z"/></svg>