<svg height="45" viewBox="0 0 64 64" width="45" fill= '#000080' xmlns="http://www.w3.org/2000/svg"><path d="m31 2c-7.746094 0-15.027344 3.015625-20.503906 8.496094-5.480469 5.476562-8.496094 12.757812-8.496094 20.503906s3.015625 15.027344 8.496094 20.503906c5.476562 5.480469 12.757812 8.496094 20.503906 8.496094s15.027344-3.015625 20.503906-8.496094c5.480469-5.476562 8.496094-12.757812 8.496094-20.503906s-3.015625-15.027344-8.496094-20.503906c-5.476562-5.480469-12.757812-8.496094-20.503906-8.496094zm0 2c7.210938 0 13.992188 2.808594 19.09375 7.90625 5.097656 5.101563 7.90625 11.882813 7.90625 19.09375 0 7.210938-2.808594 13.992188-7.90625 19.09375-5.101562 5.097656-11.882812 7.90625-19.09375 7.90625-7.210937 0-13.992187-2.808594-19.09375-7.90625-5.097656-5.101562-7.90625-11.882812-7.90625-19.09375 0-7.210937 2.808594-13.992187 7.90625-19.09375 5.101563-5.097656 11.882813-7.90625 19.09375-7.90625zm0 4c-.550781 0-1 .449219-1 1v4c0 .550781.449219 1 1 1s1-.449219 1-1v-2.953125c5.230469.246094 10.121094 2.375 13.847656 6.105469 3.96875 3.964844 6.152344 9.238281 6.152344 14.847656s-2.183594 10.882813-6.152344 14.847656c-3.964843 3.96875-9.238281 6.152344-14.847656 6.152344s-10.882812-2.183594-14.847656-6.152344c-5-4.996093-7.140625-12.242187-5.714844-19.132812l1.785156.550781c.527344.15625 1.089844-.136719 1.25-.664062.164063-.527344-.132812-1.085938-.660156-1.25l-2.808594-.863282c-.261718-.078125-.542968-.050781-.78125.082032-.238281.132812-.414062.359375-.480468.621093-2.046875 7.871094.253906 16.328125 5.996093 22.074219 4.34375 4.339844 10.117188 6.734375 16.261719 6.734375s11.917969-2.390625 16.265625-6.734375c4.34375-4.347656 6.734375-10.121094 6.734375-16.265625s-2.390625-11.917969-6.734375-16.265625c-4.347656-4.34375-10.121094-6.734375-16.265625-6.734375zm-4.074219 2.59375c-.128906-.015625-.261718-.011719-.394531.027344-.535156.140625-.851562.691406-.707031 1.222656l.519531 1.933594c.117188.445312.519531.742187.964844.742187.082031 0 .167969-.011718.253906-.035156.535156-.144531.851563-.691406.707031-1.222656l-.515625-1.933594c-.105468-.402344-.441406-.679687-.828125-.734375zm-5.445312 2.144531c-.128906.019532-.257813.058594-.375.128907-.480469.277343-.644531.890625-.371094 1.367187l1 1.734375c.1875.320313.523438.5.871094.5.167969 0 .339844-.046875.5-.136719.476562-.277343.640625-.886718.363281-1.363281l-1-1.734375c-.207031-.359375-.605469-.542969-.988281-.496094zm9.519531 3.261719c-.550781 0-1 .449219-1 1v4c0 .550781.449219 1 1 1s1-.449219 1-1v-4c0-.550781-.449219-1-1-1zm-13.847656.152344c-.257813 0-.511719.09375-.710938.289062-.390625.394532-.390625 1.023438 0 1.417969l1.417969 1.410156c.191406.195313.449219.292969.703125.292969.257813 0 .515625-.097656.707031-.292969.394532-.390625.394532-1.019531 0-1.410156l-1.410156-1.417969c-.199219-.195312-.453125-.289062-.707031-.289062zm-3.292969 4.457031c-.390625-.046875-.785156.136719-.992187.496094-.277344.476562-.113282 1.089844.367187 1.363281l1.734375 1c.15625.09375.328125.136719.496094.136719.347656 0 .683594-.179688.867187-.5.277344-.480469.113282-1.089844-.363281-1.367188l-1.734375-1c-.121094-.070312-.246094-.109375-.375-.128906zm2 5.402344c-.382812.050781-.71875.332031-.828125.730469-.140625.535156.179688 1.082031.710938 1.226562l12.28125 3.269531c.125 1.542969 1.40625 2.761719 2.976562 2.761719 1.652344 0 3-1.347656 3-3s-1.347656-3-3-3c-1.027344 0-1.933594.519531-2.472656 1.308594l-12.269531-3.277344c-.132813-.035156-.269532-.039062-.398438-.019531zm16.125 4.921875c.003906.023437.015625.042969.015625.066406 0 .046875-.019531.082031-.027344.125.011719-.0625.019532-.128906.011719-.191406z" /></svg>