<svg height="45" viewBox="0 0 64 64" width="45" fill= '#000080' xmlns="http://www.w3.org/2000/svg"><path d="m51.152344.0117188c-.542969-.0820313-1.054688.2890622-1.140625.8359372l-.730469 4.738282-14.558594-1.609375c-1.210937-.132813-2.402343.28125-3.269531 1.148437l-27.96875 27.96875c-1.558594 1.5625-1.558594 4.101563 0 5.660156l21.214844 21.214844c.753906.753906 1.757812 1.167969 2.828125 1.167969 1.066406 0 2.070312-.414063 2.828125-1.167969l27.972656-27.976562c.859375-.863282 1.277344-2.054688 1.144531-3.269532l-1.585937-14.355468 5.183594-.371094c.550781-.039063.964843-.515625.925781-1.070313-.039063-.546875-.507813-.949218-1.066406-.925781l-5.261719.378906-.308594-2.753906c-.207031-1.875-1.660156-3.328125-3.535156-3.535156l-2.554688-.285156.71875-4.652344c.085938-.546875-.289062-1.0546877-.835937-1.1406252zm-16.871094 5.9414062c.074219 0 .148438.003906.222656.011719l19.101563 2.113281c.9375.105469 1.664062.832031 1.769531 1.765625l.296875 2.675781-3.003906.214844c-.195313-.402344-.445313-.78125-.773438-1.109375-1.558593-1.558594-4.097656-1.558594-5.65625 0-1.558593 1.5625-1.558593 4.097656 0 5.65625.78125.78125 1.804688 1.171875 2.828125 1.171875 1.027344 0 2.050782-.390625 2.828125-1.171875.695313-.691406 1.085938-1.59375 1.148438-2.5625l2.847656-.203125 1.59375 14.433594c.070313.601562-.140625 1.199219-.574219 1.628906l-27.972656 27.972656c-.777344.78125-2.046875.78125-2.828125 0l-21.210937-21.210937c-.78125-.78125-.777344-2.050781 0-2.828125l27.972656-27.972656c.378906-.378907.882812-.585938 1.410156-.585938zm14.785156 6.347656c.554688 0 1.105469.210938 1.523438.632813.40625.40625.628906.945312.628906 1.519531s-.222656 1.117188-.628906 1.519531c-.839844.839844-2.203125.839844-3.042969 0-.839844-.835937-.839844-2.203125 0-3.039062.417969-.421875.96875-.632813 1.519531-.632813zm-6.363281 7.515625c-.253906 0-.511719.097657-.707031.292969l-2.121094 2.125-.707031-.707031c-1.949219-1.949219-5.121094-1.949219-7.070313 0l-1.414062 1.410156c-1.949219 1.949219-1.949219 5.125 0 7.074219l1.414062 1.410156v.003906l1.414063 1.414063c1.167969 1.171875 1.167969 3.070312 0 4.242187l-1.417969 1.414063c-1.167969 1.171875-3.070312 1.167969-4.238281 0l-.710938-.707031 4.246094-4.242188c.390625-.390625.390625-1.023437 0-1.414062-.394531-.390625-1.023437-.390625-1.417969 0l-4.238281 4.242187-.710937-.707031c-1.167969-1.171875-1.167969-3.074219 0-4.246094.390625-.390625.390625-1.019531 0-1.410156-.390625-.394531-1.023438-.394531-1.414063 0-1.949219 1.945312-1.949219 5.121094 0 7.066406l.707031.710938-2.121093 2.121093c-.390625.390625-.390625 1.023438 0 1.414063.195312.195312.449218.292969.707031.292969.257812 0 .511719-.097657.707031-.292969l2.125-2.121094.703125.707031c.976563.976563 2.257813 1.460938 3.535156 1.460938 1.28125 0 2.5625-.488281 3.539063-1.460938l1.414062-1.414062c1.949219-1.949219 1.949219-5.121094 0-7.070313l-.707031-.707031 4.242188-4.242187c.390625-.390625.390625-1.023438 0-1.414063s-1.023438-.390625-1.414063 0l-4.246094 4.242188-.707031-.707032c-1.167969-1.171875-1.167969-3.070312 0-4.242187l1.417969-1.417969c1.167969-1.167969 3.070312-1.167969 4.242187 0l2.824219 2.832031c1.171875 1.171875 1.171875 3.070313 0 4.242188-.390625.390625-.390625 1.023437 0 1.414062.394531.390625 1.023438.390625 1.417969 0 1.949219-1.949218 1.949219-5.121093 0-7.070312l-.710938-.707031 2.125-2.121094c.390625-.394531.390625-1.023438 0-1.417969-.195312-.195312-.453125-.292969-.707031-.292969zm-34.234375 13.023438c-.257812 0-.511719.097656-.707031.292969l-1.414063 1.414062c-.390625.390625-.390625 1.023438 0 1.414063.195313.195312.449219.292968.707032.292968.257812 0 .511718-.097656.707031-.292968l1.414062-1.414063c.390625-.390625.390625-1.023437 0-1.414062-.195312-.195313-.449218-.292969-.707031-.292969zm3.535156 3.535156c-.257812 0-.511718.097656-.707031.292969l-1.414062 1.414062c-.390625.390625-.390625 1.023438 0 1.414063.195312.195312.449218.292969.707031.292969.257812 0 .511719-.097657.707031-.292969l1.414063-1.417969c.390625-.390625.390625-1.019531 0-1.410156-.195313-.195313-.449219-.292969-.707032-.292969zm3.535157 3.535156c-.253907 0-.511719.097657-.707032.292969l-1.414062 1.414063c-.390625.390625-.390625 1.023437 0 1.414062.195312.195313.449219.292969.707031.292969.257813 0 .511719-.097656.707031-.292969l1.414063-1.414062c.390625-.390625.390625-1.023438 0-1.414063-.195313-.195312-.453125-.292969-.707031-.292969zm3.539062 3.535157c-.257812 0-.515625.097656-.707031.292968l-1.417969 1.414063c-.390625.390625-.390625 1.023437 0 1.414062.195313.195313.449219.292969.707031.292969.257813 0 .511719-.097656.707032-.292969l1.414062-1.414062c.394531-.390625.394531-1.023438 0-1.414063-.195312-.195312-.449219-.292968-.703125-.292968zm3.53125 3.535156c-.253906 0-.511719.097656-.703125.292969l-1.417969 1.414062c-.390625.390625-.390625 1.023438 0 1.414063.195313.195312.453125.292968.710938.292968.253906 0 .511719-.097656.707031-.292968l1.410156-1.414063c.394532-.390625.394532-1.023437 0-1.414062-.195312-.195313-.449218-.292969-.707031-.292969zm3.535156 3.535156c-.253906 0-.511718.097656-.707031.292969l-1.410156 1.414062c-.394531.394532-.394531 1.027344 0 1.417969.191406.191406.449219.292969.707031.292969.253906 0 .511719-.101563.703125-.292969l1.417969-1.417969c.390625-.390625.390625-1.023437 0-1.414062-.195313-.195313-.453125-.292969-.710938-.292969zm3.539063 3.535156c-.257813 0-.515625.097657-.710938.292969l-1.410156 1.417969c-.394531.390625-.394531 1.023437 0 1.410156.191406.195313.449219.296875.703125.296875.257813 0 .515625-.101562.707031-.296875l1.417969-1.410156c.390625-.394531.390625-1.027344 0-1.417969-.195312-.195312-.453125-.292969-.707031-.292969z"/></svg>