<svg height="45" viewBox="0 0 64 64" width="45" xmlns="http://www.w3.org/2000/svg"><path d="m31.171875 2.007813c-2.859375 0-5.71875 1.085937-7.898437 3.265625-4.355469 4.355468-4.355469 11.441406 0 15.800781l15.101562 15.097656c.4375.4375 1.015625.675781 1.628906.675781.617188 0 1.199219-.238281 1.636719-.675781l15.085938-15.097656c4.355468-4.359375 4.355468-11.445313 0-15.800781-4.355469-4.359375-11.441407-4.359375-15.800782 0l-.925781.925781-.925781-.925781c-2.179688-2.179688-5.039063-3.265625-7.902344-3.265625zm17.65625 1.996093c2.347656 0 4.699219.894532 6.484375 2.683594 3.578125 3.574219 3.578125 9.394531 0 12.96875l-15.089844 15.105469c-.144531.144531-.285156.144531-.433593 0l-15.101563-15.105469c-3.578125-3.574219-3.578125-9.394531 0-12.96875 1.789063-1.789062 4.136719-2.679687 6.484375-2.679687 2.351563 0 4.699219.890625 6.484375 2.679687l.933594.929688-.21875.214843c-.394531.390625-.394531 1.023438 0 1.414063.191406.195312.449219.292969.707031.292969.253906 0 .511719-.097657.703125-.292969l.21875-.21875 2.34375-2.339844c1.785156-1.789062 4.136719-2.683594 6.484375-2.683594zm-12.097656 5.878907c-.253906 0-.511719.097656-.707031.292968l-1.65625 1.65625c-.390625.390625-.390625 1.023438 0 1.414063.195312.195312.449218.292969.707031.292969.257812 0 .511719-.097657.707031-.292969l1.65625-1.65625c.390625-.390625.390625-1.023438 0-1.414063-.195312-.195312-.453125-.292968-.707031-.292968zm-16.433594 25.441406c-.605469-.015625-1.210937.011719-1.816406.082031l-11.832031 1.390625c-1.507813.179688-2.648438 1.460938-2.648438 2.984375v12.65625c0 .933594.421875 1.792969 1.15625 2.367188.730469.570312 1.667969.769531 2.570313.542968l6.5625-1.636718c1.671875-.414063 3.433593-.207032 4.960937.597656l12.585938 6.628906c1.3125.691406 2.75 1.035156 4.191406 1.035156 1.421875 0 2.84375-.332031 4.144531-1.007812l21.300781-11.046875c1.558594-.808594 2.527344-2.398438 2.527344-4.164063 0-1.457031-.664062-2.804687-1.816406-3.699218-1.152344-.894532-2.628906-1.195313-4.039063-.828125l-13.410156 3.476562c-.261719-.78125-.71875-1.496094-1.328125-2.0625-1.015625-.945312-2.382812-1.429687-3.765625-1.328125l-2.191406.15625c-.859375.0625-1.714844-.097656-2.492188-.464844l-9.410156-4.441406c-1.652344-.777344-3.441406-1.199219-5.25-1.238281zm-.046875 2c1.53125.03125 3.046875.386719 4.441406 1.046875l9.414063 4.441406c1.085937.511719 2.289062.738281 3.488281.652344l2.191406-.15625c.839844-.058594 1.644532.222656 2.261719.796875.613281.570312.953125 1.351562.953125 2.191406v.40625c0 .394531-.230469.753906-.589844.914063l-2.953125 1.324218c-2.214843.996094-4.777343 1.050782-7.03125.148438l-5.042968-2.019531c-.515625-.207032-1.097657.046875-1.300782.558593-.207031.511719.042969 1.09375.558594 1.296875l5.042969 2.023438c2.757812 1.101562 5.890625 1.035156 8.597656-.183594l2.949219-1.324219c1.074219-.484375 1.769531-1.558593 1.769531-2.738281l13.644531-3.542969c.8125-.207031 1.652344-.035156 2.3125.476563.664063.511719 1.042969 1.285156 1.042969 2.128906 0 1.003906-.554687 1.914063-1.445312 2.375l-21.304688 11.046875c-2.03125 1.054688-4.457031 1.046875-6.484375-.019531l-12.585937-6.628906c-1.304688-.6875-2.742188-1.039063-4.191407-1.039063-.730468 0-1.460937.089844-2.179687.269531l-6.566406 1.640625c-.300782.078125-.613282.011719-.855469-.179687-.246094-.191406-.386719-.480469-.386719-.792969v-12.65625c0-.507812.378906-.9375.882813-.996094l11.832031-1.390625c.511719-.058593 1.023437-.082031 1.535156-.070312zm-11.25 2.675781c-.550781 0-1 .449219-1 1s.449219 1 1 1h2c.550781 0 1-.449219 1-1s-.449219-1-1-1zm0 5c-.550781 0-1 .449219-1 1s.449219 1 1 1h2c.550781 0 1-.449219 1-1s-.449219-1-1-1zm0 5c-.550781 0-1 .449219-1 1s.449219 1 1 1h2c.550781 0 1-.449219 1-1s-.449219-1-1-1z"/></svg>