<svg height="48" viewBox="0 0 64 64" fill= "#fff" width="48" xmlns="http://www.w3.org/2000/svg"><path d="m26.828125 6c-.800781 0-1.554687.3125-2.121094.878906l-1.828125 1.828125c-.566406.566407-.878906 1.320313-.878906 2.121094v1.171875h-9.34375c-1.335937 0-2.589844.519531-3.535156 1.464844l-2.824219 2.828125-.003906.003906-2.828125 2.824219c-.945313.945312-1.464844 2.199219-1.464844 3.535156v30.34375c0 1.652344 1.347656 3 3 3h54c1.652344 0 3-1.347656 3-3v-30.34375c0-1.335937-.519531-2.589844-1.464844-3.535156l-2.828125-2.824219-.003906-.003906-2.824219-2.828125c-.945312-.945313-2.199218-1.464844-3.535156-1.464844h-9.34375v-1.171875c0-.800781-.3125-1.554687-.878906-2.121094l-1.828125-1.828125c-.566406-.566406-1.320313-.878906-2.121094-.878906zm0 2h10.34375c.265625 0 .519531.105469.707031.292969l1.828125 1.828125c.183594.1875.292969.445312.292969.707031v1.171875h-16v-1.171875c0-.261719.105469-.519531.292969-.707031l1.828125-1.828125c.1875-.1875.441406-.292969.707031-.292969zm-14.171875 6h38.6875c.789063 0 1.5625.320313 2.121094.878906l2.535156 2.535157v1.585937c0 .554688.449219 1 1 1 .429688 0 .789063-.273437.929688-.65625l1.191406 1.191406c.566406.566407.878906 1.320313.878906 2.121094v7.34375h-8c0-1.101562-.898437-2-2-2h-6c-1.101562 0-2 .898438-2 2h-20c0-1.101562-.898437-2-2-2h-6c-1.101562 0-2 .898438-2 2h-8v-7.34375c0-.800781.3125-1.554687.878906-2.121094l1.191407-1.191406c.140625.382813.5.65625.929687.65625.550781 0 1-.445312 1-1v-1.585937l2.535156-2.535157c.558594-.558593 1.332032-.878906 2.121094-.878906zm-.65625 2c-.550781 0-1 .445313-1 1v2c0 .554688.449219 1 1 1s1-.445312 1-1v-2c0-.554687-.449219-1-1-1zm5 0c-.550781 0-1 .445313-1 1v2c0 .554688.449219 1 1 1s1-.445312 1-1v-2c0-.554687-.449219-1-1-1zm5 0c-.550781 0-1 .445313-1 1v2c0 .554688.449219 1 1 1s1-.445312 1-1v-2c0-.554687-.449219-1-1-1zm5 0c-.550781 0-1 .445313-1 1v2c0 .554688.449219 1 1 1s1-.445312 1-1v-2c0-.554687-.449219-1-1-1zm5 0c-.550781 0-1 .445313-1 1v2c0 .554688.449219 1 1 1s1-.445312 1-1v-2c0-.554687-.449219-1-1-1zm5 0c-.550781 0-1 .445313-1 1v2c0 .554688.449219 1 1 1s1-.445312 1-1v-2c0-.554687-.449219-1-1-1zm5 0c-.550781 0-1 .445313-1 1v2c0 .554688.449219 1 1 1s1-.445312 1-1v-2c0-.554687-.449219-1-1-1zm5 0c-.550781 0-1 .445313-1 1v2c0 .554688.449219 1 1 1s1-.445312 1-1v-2c0-.554687-.449219-1-1-1zm5 0c-.550781 0-1 .445313-1 1v2c0 .554688.449219 1 1 1s1-.445312 1-1v-2c0-.554687-.449219-1-1-1zm-38 14h6v4h-6zm30 0h6v4h-6zm-40 2h8v2c0 1.101563.898438 2 2 2h6c1.101563 0 2-.898437 2-2v-2h20v2c0 1.101563.898438 2 2 2h6c1.101563 0 2-.898437 2-2v-2h8v21c0 .550781-.449219 1-1 1h-54c-.550781 0-1-.449219-1-1zm3 18c-.550781 0-1 .445313-1 1 0 .554688.449219 1 1 1h42c.550781 0 1-.445312 1-1 0-.554687-.449219-1-1-1zm46 0c-.550781 0-1 .445313-1 1 0 .554688.449219 1 1 1h4c.550781 0 1-.445312 1-1 0-.554687-.449219-1-1-1z"/></svg>