<svg height="45" viewBox="0 0 64 64" width="45" fill= '#000080' xmlns="http://www.w3.org/2000/svg"><path d="m16 4c-1.103 0-2 .897-2 2v4c-1.103 0-2 .897-2 2v4c-1.103 0-2 .897-2 2v10.015625c-1.047.081-1.9712656.690578-2.4472656 1.642578l-5.0253906 10.048828c-.345.691-.5273438 1.464328-.5273438 2.236328v15.056641c0 1.654 1.346 3 3 3h54c1.654 0 3-1.346 3-3v-15.056641c0-.772-.182344-1.545328-.527344-2.236328l-5.02539-10.048828c-.476-.952-1.401266-1.561578-2.447266-1.642578v-10.015625c0-1.103-.897-2-2-2v-4c0-1.103-.897-2-2-2v-4c0-1.103-.897-2-2-2zm0 2h32v4h-32zm-2 6h36v4h-36zm-2 6h40v21c0 .552.448 1 1 1s1-.448 1-1v-8.966797c.282.068.524203.251531.658203.519531l5.025391 10.050782c.208.414.316406.876843.316406 1.339843v.056641h-18.171875c-.801 0-1.554094.311906-2.121094.878906l-2.828125 2.828125c-.189.189-.440031.292969-.707031.292969h-8.34375c-.267 0-.519984-.103969-.708984-.292969l-2.826172-2.828125c-.565-.567-1.319094-.878906-2.121094-.878906h-18.171875v-.056641c0-.463.1084062-.926797.3164062-1.341797l5.0253907-10.048828c.134-.268.3762031-.453484.6582031-.521484v8.96875c0 .552.448 1 1 1s1-.448 1-1zm5 4c-.552 0-1 .448-1 1s.448 1 1 1h10c.552 0 1-.448 1-1s-.448-1-1-1zm14 0c-.552 0-1 .448-1 1s.448 1 1 1h6c.552 0 1-.448 1-1s-.448-1-1-1zm-14 4c-.552 0-1 .448-1 1s.448 1 1 1h15c.552 0 1-.448 1-1s-.448-1-1-1zm-13 18h18.171875c.267 0 .518031.103969.707031.292969l2.828125 2.828125c.566.567 1.319094.878906 2.121094.878906h8.34375c.801 0 1.556047-.311906 2.123047-.878906l2.826172-2.828125c.188-.189.440031-.292969.707031-.292969h18.171875v13c0 .551-.449 1-1 1h-54c-.551 0-1-.449-1-1zm3 6c-.552 0-1 .448-1 1v2c0 .552.448 1 1 1s1-.448 1-1v-2c0-.552-.448-1-1-1zm5 0c-.552 0-1 .448-1 1v2c0 .552.448 1 1 1s1-.448 1-1v-2c0-.552-.448-1-1-1zm5 0c-.552 0-1 .448-1 1v2c0 .552.448 1 1 1s1-.448 1-1v-2c0-.552-.448-1-1-1zm5 0c-.552 0-1 .448-1 1v2c0 .552.448 1 1 1s1-.448 1-1v-2c0-.552-.448-1-1-1zm5 0c-.552 0-1 .448-1 1v2c0 .552.448 1 1 1s1-.448 1-1v-2c0-.552-.448-1-1-1zm5 0c-.552 0-1 .448-1 1v2c0 .552.448 1 1 1s1-.448 1-1v-2c0-.552-.448-1-1-1zm5 0c-.552 0-1 .448-1 1v2c0 .552.448 1 1 1s1-.448 1-1v-2c0-.552-.448-1-1-1zm5 0c-.552 0-1 .448-1 1v2c0 .552.448 1 1 1s1-.448 1-1v-2c0-.552-.448-1-1-1zm5 0c-.552 0-1 .448-1 1v2c0 .552.448 1 1 1s1-.448 1-1v-2c0-.552-.448-1-1-1zm5 0c-.552 0-1 .448-1 1v2c0 .552.448 1 1 1s1-.448 1-1v-2c0-.552-.448-1-1-1zm5 0c-.552 0-1 .448-1 1v2c0 .552.448 1 1 1s1-.448 1-1v-2c0-.552-.448-1-1-1z"/></svg>