<svg height="45" viewBox="0 0 64 64" width="45" fill= '#000080' xmlns="http://www.w3.org/2000/svg"><path d="m5 4c-1.652344 0-3 1.347656-3 3v40c0 1.652344 1.347656 3 3 3h19v2h-7.339844c-1.339843 0-2.589843.519531-3.539062 1.460938l-5.121094 5.128906c-.570312.570312-.738281 1.429687-.429687 2.179687.308593.75 1.03125 1.230469 1.839843 1.230469h45.179688c.808594 0 1.53125-.480469 1.839844-1.230469.308593-.75.140625-1.609375-.429688-2.179687l-5.121094-5.128906c-.949218-.941407-2.199218-1.460938-3.539062-1.460938h-7.339844v-2h19c1.652344 0 3-1.347656 3-3v-40c0-1.652344-1.347656-3-3-3zm0 2h54c.550781 0 1 .449219 1 1v40c0 .550781-.449219 1-1 1h-54c-.550781 0-1-.449219-1-1v-40c0-.550781.449219-1 1-1zm4 4c-.550781 0-1 .445313-1 1v32c0 .554688.449219 1 1 1h46c.550781 0 1-.445312 1-1v-32c0-.554687-.449219-1-1-1zm1 2h44v30h-44zm14 4c-.253906 0-.511719.097656-.707031.292969l-8 8c-.390625.390625-.390625 1.023437 0 1.414062l8 8c.195312.195313.449219.292969.707031.292969.257813 0 .511719-.097656.707031-.292969.390625-.390625.390625-1.023437 0-1.414062l-7.292968-7.292969 7.292968-7.292969c.390625-.390625.390625-1.023437 0-1.414062-.195312-.195313-.453125-.292969-.707031-.292969zm16 0c-.253906 0-.511719.097656-.707031.292969-.390625.390625-.390625 1.023437 0 1.414062l7.292969 7.292969-7.292969 7.292969c-.390625.390625-.390625 1.023437 0 1.414062.195312.195313.449219.292969.707031.292969.257813 0 .511719-.097656.707031-.292969l8-8c.390625-.390625.390625-1.023437 0-1.414062l-8-8c-.195312-.195313-.453125-.292969-.707031-.292969zm-28 20c-.550781 0-1 .445313-1 1v2c0 .554688.449219 1 1 1s1-.445312 1-1v-2c0-.554687-.449219-1-1-1zm5 0c-.550781 0-1 .445313-1 1v2c0 .554688.449219 1 1 1s1-.445312 1-1v-2c0-.554687-.449219-1-1-1zm5 0c-.550781 0-1 .445313-1 1v2c0 .554688.449219 1 1 1s1-.445312 1-1v-2c0-.554687-.449219-1-1-1zm5 0c-.550781 0-1 .445313-1 1v2c0 .554688.449219 1 1 1s1-.445312 1-1v-2c0-.554687-.449219-1-1-1zm5 0c-.550781 0-1 .445313-1 1v2c0 .554688.449219 1 1 1s1-.445312 1-1v-2c0-.554687-.449219-1-1-1zm5 0c-.550781 0-1 .445313-1 1v2c0 .554688.449219 1 1 1s1-.445312 1-1v-2c0-.554687-.449219-1-1-1zm5 0c-.550781 0-1 .445313-1 1v2c0 .554688.449219 1 1 1s1-.445312 1-1v-2c0-.554687-.449219-1-1-1zm5 0c-.550781 0-1 .445313-1 1v2c0 .554688.449219 1 1 1s1-.445312 1-1v-2c0-.554687-.449219-1-1-1zm5 0c-.550781 0-1 .445313-1 1v2c0 .554688.449219 1 1 1s1-.445312 1-1v-2c0-.554687-.449219-1-1-1zm-26 14h12v6h-12zm-9.339844 4h7.339844v2c0 1.101563.898438 2 2 2h12c1.101563 0 2-.898437 2-2v-2h7.339844c.789062 0 1.570312.320313 2.121094.878906l5.128906 5.121094h-45.179688l5.128907-5.121094c.550781-.558593 1.332031-.878906 2.121093-.878906z"/></svg>